<?xml version="1.0" encoding="UTF-8" standalone="no"?>
<svg xmlns:xlink="http://www.w3.org/1999/xlink" height="111.2px" width="98.0px" xmlns="http://www.w3.org/2000/svg">
  <g transform="matrix(1.0, 0.0, 0.0, 1.0, 2.35, 108.9)">
    <path d="M78.9 -98.85 L78.2 -99.45 Q76.65 -101.0 76.65 -103.15 76.65 -105.3 78.2 -106.85 79.75 -108.4 81.9 -108.4 84.05 -108.4 85.6 -106.85 87.15 -105.3 87.15 -103.15 87.15 -101.0 85.6 -99.45 84.05 -97.9 81.9 -97.9 80.2 -97.9 78.9 -98.85 M72.8 -85.65 Q74.4 -81.45 75.2 -78.25 L75.85 -75.55 76.4 -72.85 Q79.6 -74.2 83.95 -73.95 L91.8 -72.85 Q90.1 -65.5 83.6 -61.65 78.75 -58.8 74.6 -59.05 L74.15 -54.2 73.4 -49.85 70.8 -49.85 73.4 -49.85 74.15 -54.2 69.6 -57.05 74.15 -54.2 81.0 -49.85 73.4 -49.85 Q72.8 -47.1 72.0 -44.8 L75.8 -38.45 69.7 -39.75 69.7 -39.85 Q71.0 -42.0 72.0 -44.8 71.0 -42.0 69.7 -39.85 L69.65 -39.75 Q67.7 -36.7 64.2 -34.4 L64.2 -28.85 60.45 -33.0 55.35 -32.65 52.2 -32.75 50.8 -28.05 49.05 -33.3 Q47.7 -33.65 46.8 -34.25 L46.3 -34.6 Q44.7 -35.75 43.3 -37.5 L37.2 -35.45 40.8 -41.6 Q39.2 -44.75 38.9 -48.0 L38.8 -50.65 38.8 -50.85 38.8 -50.65 38.9 -48.0 32.8 -50.85 38.8 -50.85 Q39.15 -55.55 43.25 -61.3 L43.4 -61.5 45.75 -64.35 43.4 -61.5 43.25 -61.3 45.0 -58.85 43.25 -61.3 39.2 -67.05 45.75 -64.35 50.8 -70.45 Q47.1 -76.85 47.65 -82.65 48.0 -86.8 50.8 -91.45 56.2 -88.55 58.7 -84.3 60.7 -80.95 61.2 -75.85 62.45 -79.35 67.75 -82.85 70.4 -84.6 72.8 -85.65 M85.6 -89.95 Q84.65 -91.3 84.65 -92.95 84.65 -95.1 86.2 -96.65 87.75 -98.2 89.9 -98.2 92.05 -98.2 93.6 -96.65 95.15 -95.1 95.15 -92.95 95.15 -90.8 93.6 -89.25 92.05 -87.7 89.9 -87.7 87.75 -87.7 86.2 -89.25 L85.6 -89.95 M67.3 -95.55 Q66.35 -95.95 65.55 -96.75 64.0 -98.3 64.0 -100.45 64.0 -102.6 65.55 -104.15 67.1 -105.7 69.25 -105.7 71.4 -105.7 72.95 -104.15 74.5 -102.6 74.5 -100.45 74.5 -98.3 72.95 -96.75 71.4 -95.2 69.25 -95.2 L67.3 -95.55 67.6 -96.65 67.3 -95.55 M43.0 -46.05 L38.9 -48.0 43.0 -46.05 M53.8 -38.45 L52.2 -32.75 49.05 -33.3 47.2 -38.85 43.3 -37.5 Q42.3 -38.8 41.4 -40.4 L40.8 -41.6 42.2 -44.05 40.8 -41.6 41.4 -40.4 Q42.3 -38.8 43.3 -37.5 L47.2 -38.85 49.05 -33.3 52.2 -32.75 53.8 -38.45 M70.4 -47.45 L72.0 -44.8 70.4 -47.45 M64.2 -39.25 L64.2 -34.4 63.6 -34.05 Q62.45 -33.35 60.45 -33.0 L57.2 -36.65 60.45 -33.0 Q62.45 -33.35 63.6 -34.05 L64.2 -34.4 64.2 -39.25 M42.0 -50.85 L38.8 -50.85 42.0 -50.85" fill="#ffffff" fill-rule="evenodd" stroke="none"/>
    <path d="M78.9 -98.85 L78.2 -99.45 Q76.65 -101.0 76.65 -103.15 76.65 -105.3 78.2 -106.85 79.75 -108.4 81.9 -108.4 84.05 -108.4 85.6 -106.85 87.15 -105.3 87.15 -103.15 87.15 -101.0 85.6 -99.45 84.05 -97.9 81.9 -97.9 80.2 -97.9 78.9 -98.85 M72.8 -85.65 Q74.4 -81.45 75.2 -78.25 L75.85 -75.55 M85.6 -89.95 Q84.65 -91.3 84.65 -92.95 84.65 -95.1 86.2 -96.65 87.75 -98.2 89.9 -98.2 92.05 -98.2 93.6 -96.65 95.15 -95.1 95.15 -92.95 95.15 -90.8 93.6 -89.25 92.05 -87.7 89.9 -87.7 87.75 -87.7 86.2 -89.25 L85.6 -89.95 M67.3 -95.55 Q66.35 -95.95 65.55 -96.75 64.0 -98.3 64.0 -100.45 64.0 -102.6 65.55 -104.15 67.1 -105.7 69.25 -105.7 71.4 -105.7 72.95 -104.15 74.5 -102.6 74.5 -100.45 74.5 -98.3 72.95 -96.75 71.4 -95.2 69.25 -95.2 L67.3 -95.55 M61.2 -75.85 Q62.45 -79.35 67.75 -82.85 70.4 -84.6 72.8 -85.65 M67.6 -96.65 L67.3 -95.55 M61.2 -75.85 Q60.7 -80.95 58.7 -84.3 56.2 -88.55 50.8 -91.45 48.0 -86.8 47.65 -82.65 47.1 -76.85 50.8 -70.45 L45.75 -64.35 43.4 -61.5 43.25 -61.3 45.0 -58.85 M70.8 -49.85 L73.4 -49.85 74.15 -54.2 69.6 -57.05 M74.15 -54.2 L74.6 -59.05 Q78.75 -58.8 83.6 -61.65 90.1 -65.5 91.8 -72.85 L83.95 -73.95 Q79.6 -74.2 76.4 -72.85 L75.85 -75.55 M38.9 -48.0 L38.8 -50.65 38.8 -50.85 32.8 -50.85 38.9 -48.0 43.0 -46.05 M69.7 -39.75 L75.8 -38.45 72.0 -44.8 Q71.0 -42.0 69.7 -39.85 M69.7 -39.75 L69.65 -39.75 Q67.7 -36.7 64.2 -34.4 L64.2 -28.85 60.45 -33.0 55.35 -32.65 52.2 -32.75 50.8 -28.05 49.05 -33.3 Q47.7 -33.65 46.8 -34.25 L46.3 -34.6 Q44.7 -35.75 43.3 -37.5 L37.2 -35.45 40.8 -41.6 Q39.2 -44.75 38.9 -48.0 M69.65 -39.75 L69.7 -39.85 M57.2 -36.65 L60.45 -33.0 Q62.45 -33.35 63.6 -34.05 L64.2 -34.4 64.2 -39.25 M72.0 -44.8 L70.4 -47.45 M42.2 -44.05 L40.8 -41.6 41.4 -40.4 Q42.3 -38.8 43.3 -37.5 L47.2 -38.85 49.05 -33.3 52.2 -32.75 53.8 -38.45 M72.0 -44.8 Q72.8 -47.1 73.4 -49.85 L81.0 -49.85 74.15 -54.2 M43.25 -61.3 Q39.15 -55.55 38.8 -50.85 L42.0 -50.85 M45.75 -64.35 L39.2 -67.05 43.25 -61.3" fill="none" stroke="#ffffff" stroke-linecap="round" stroke-linejoin="round" stroke-width="1.0"/>
    <path d="M78.9 -98.85 Q73.45 -92.65 72.8 -85.65 M75.85 -75.55 Q77.8 -83.5 85.6 -89.95 M67.3 -95.55 Q61.3 -87.55 61.2 -75.85" fill="none" stroke="#ffffff" stroke-linecap="round" stroke-linejoin="round" stroke-width="2.75"/>
    <path d="M46.3 -34.6 Q30.7 -11.35 0.0 -0.05" fill="none" stroke="#ffffff" stroke-linecap="round" stroke-linejoin="round" stroke-width="4.75"/>
  </g>
</svg>
