<?xml version="1.0" encoding="UTF-8" standalone="no"?>
<svg xmlns:xlink="http://www.w3.org/1999/xlink" height="47.6px" width="48.55px" xmlns="http://www.w3.org/2000/svg">
  <g transform="matrix(1.0, 0.0, 0.0, 1.0, 24.25, 23.8)">
    <path d="M7.8 -8.2 Q8.5 -8.85 10.05 -9.65 L12.85 -11.05 Q14.05 -11.8 15.9 -11.65 L18.75 -11.25 Q19.95 -11.15 21.25 -10.05 L22.9 -8.45 Q23.45 -7.75 23.65 -5.95 23.95 -3.95 23.65 -2.0 23.4 -0.15 22.4 0.95 L20.25 2.6 Q19.2 3.3 17.95 3.6 L14.95 4.1 11.7 3.65 8.9 2.55 Q9.1 1.8 8.95 0.6 L8.75 -0.4 12.75 -3.4 11.2 -3.6 8.0 -3.45 6.3 -5.7 Q6.65 -7.15 7.8 -8.2 M0.3 -23.2 Q2.35 -22.95 4.15 -22.15 5.85 -21.45 6.65 -20.2 L7.7 -17.7 Q8.1 -16.5 8.05 -15.2 L7.7 -12.2 Q7.55 -10.65 6.5 -9.15 L4.7 -6.75 2.85 -7.3 1.8 -7.35 -0.05 -12.0 -0.65 -10.55 -1.3 -7.4 -3.95 -6.35 Q-5.25 -7.05 -5.95 -8.4 L-6.8 -11.0 -7.45 -14.1 Q-7.8 -15.45 -7.25 -17.15 L-6.1 -19.85 Q-5.65 -20.9 -4.25 -21.9 -3.25 -22.75 -2.3 -23.1 L0.3 -23.2 M5.05 -3.45 Q7.0 -1.5 7.0 1.2 7.0 3.9 5.05 5.8 3.15 7.75 0.45 7.75 -2.25 7.75 -4.2 5.8 -6.1 3.9 -6.1 1.2 -6.1 -1.5 -4.2 -3.45 -2.25 -5.35 0.45 -5.35 3.15 -5.35 5.05 -3.45 M12.1 4.55 Q13.0 4.95 14.3 6.1 L16.7 8.2 Q17.75 9.05 18.35 10.75 L19.1 13.6 Q19.35 14.75 18.85 16.35 L18.0 18.5 15.9 20.05 Q14.2 21.1 12.3 21.55 10.5 22.0 9.05 21.5 L6.75 20.15 Q5.7 19.45 4.95 18.35 L3.45 15.75 Q2.65 14.45 2.55 12.55 L2.6 9.55 Q3.4 9.5 4.45 8.85 L5.3 8.3 9.6 10.9 9.15 9.4 Q8.6 7.7 7.8 6.55 L9.3 4.05 Q10.75 3.9 12.1 4.55 M-7.4 5.65 L-6.15 7.15 -5.3 7.8 -6.3 12.7 -5.05 11.75 Q-3.6 10.65 -2.8 9.5 L0.0 10.05 Q0.7 11.35 0.55 12.9 L-0.15 15.5 -1.3 18.45 Q-1.75 19.75 -3.15 20.85 L-5.55 22.55 Q-6.5 23.15 -8.25 23.25 L-10.55 23.15 Q-11.4 23.0 -12.7 21.8 -14.3 20.5 -15.35 18.85 -16.4 17.4 -16.4 15.85 L-15.95 13.2 Q-15.65 12.0 -14.85 10.9 L-12.9 8.6 Q-11.95 7.4 -10.25 6.7 L-7.4 5.65 M-23.15 -0.6 Q-23.65 -1.8 -23.75 -2.85 -23.85 -3.7 -23.1 -5.35 -22.35 -7.25 -21.1 -8.75 -19.95 -10.2 -18.5 -10.65 L-15.8 -11.0 -13.3 -10.65 -10.5 -9.5 Q-9.1 -8.9 -7.9 -7.5 L-6.05 -5.1 Q-6.65 -4.55 -7.1 -3.45 L-7.45 -2.45 -12.45 -1.95 -11.2 -1.0 Q-9.7 0.05 -8.35 0.5 L-8.05 3.35 Q-9.1 4.4 -10.6 4.7 L-13.3 4.8 -16.45 4.6 Q-17.85 4.55 -19.35 3.55 L-21.65 1.75 Q-22.55 1.0 -23.15 -0.6" fill="#ffffff" fill-rule="evenodd" stroke="none"/>
    <path d="M0.3 -23.2 L-2.3 -23.1 Q-3.25 -22.75 -4.25 -21.9 -5.65 -20.9 -6.1 -19.85 L-7.25 -17.15 Q-7.8 -15.45 -7.45 -14.1 L-6.8 -11.0 -5.95 -8.4 Q-5.25 -7.05 -3.95 -6.35 L-1.3 -7.4 -0.65 -10.55 -0.05 -12.0 1.8 -7.35 2.85 -7.3 4.7 -6.75 6.5 -9.15 Q7.55 -10.65 7.7 -12.2 L8.05 -15.2 Q8.1 -16.5 7.7 -17.7 L6.65 -20.2 Q5.85 -21.45 4.15 -22.15 2.35 -22.95 0.3 -23.2 M7.8 -8.2 Q6.65 -7.15 6.3 -5.7 L8.0 -3.45 11.2 -3.6 12.75 -3.4 8.75 -0.4 8.95 0.6 Q9.1 1.8 8.9 2.55 L11.7 3.65 14.95 4.1 17.95 3.6 Q19.2 3.3 20.25 2.6 L22.4 0.95 Q23.4 -0.15 23.65 -2.0 23.95 -3.95 23.65 -5.95 23.45 -7.75 22.9 -8.45 L21.25 -10.05 Q19.95 -11.15 18.75 -11.25 L15.9 -11.65 Q14.05 -11.8 12.85 -11.05 L10.05 -9.65 Q8.5 -8.85 7.8 -8.2 M5.05 -3.45 Q7.0 -1.5 7.0 1.2 7.0 3.9 5.05 5.8 3.15 7.75 0.45 7.75 -2.25 7.75 -4.2 5.8 -6.1 3.9 -6.1 1.2 -6.1 -1.5 -4.2 -3.45 -2.25 -5.35 0.45 -5.35 3.15 -5.35 5.05 -3.45 M-23.15 -0.6 Q-22.55 1.0 -21.65 1.75 L-19.35 3.55 Q-17.85 4.55 -16.45 4.6 L-13.3 4.8 -10.6 4.7 Q-9.1 4.4 -8.05 3.35 L-8.35 0.5 Q-9.7 0.05 -11.2 -1.0 L-12.45 -1.95 -7.45 -2.45 -7.1 -3.45 Q-6.65 -4.55 -6.05 -5.1 L-7.9 -7.5 Q-9.1 -8.9 -10.5 -9.5 L-13.3 -10.65 -15.8 -11.0 -18.5 -10.65 Q-19.95 -10.2 -21.1 -8.75 -22.35 -7.25 -23.1 -5.35 -23.85 -3.7 -23.75 -2.85 -23.65 -1.8 -23.15 -0.6 M-7.4 5.65 L-10.25 6.7 Q-11.95 7.4 -12.9 8.6 L-14.85 10.9 Q-15.65 12.0 -15.95 13.2 L-16.4 15.85 Q-16.4 17.4 -15.35 18.85 -14.3 20.5 -12.7 21.8 -11.4 23.0 -10.55 23.15 L-8.25 23.25 Q-6.5 23.15 -5.55 22.55 L-3.15 20.85 Q-1.75 19.75 -1.3 18.45 L-0.15 15.5 0.55 12.9 Q0.7 11.35 0.0 10.05 L-2.8 9.5 Q-3.6 10.65 -5.05 11.75 L-6.3 12.7 -5.3 7.8 -6.15 7.15 -7.4 5.65 M12.1 4.55 Q10.75 3.9 9.3 4.05 L7.8 6.55 Q8.6 7.7 9.15 9.4 L9.6 10.9 5.3 8.3 4.45 8.85 Q3.4 9.5 2.6 9.55 L2.55 12.55 Q2.65 14.45 3.45 15.75 L4.95 18.35 Q5.7 19.45 6.75 20.15 L9.05 21.5 Q10.5 22.0 12.3 21.55 14.2 21.1 15.9 20.05 L18.0 18.5 18.85 16.35 Q19.35 14.75 19.1 13.6 L18.35 10.75 Q17.75 9.05 16.7 8.2 L14.3 6.1 Q13.0 4.95 12.1 4.55" fill="none" stroke="#ffffff" stroke-linecap="round" stroke-linejoin="round" stroke-width="1.0"/>
  </g>
</svg>
